<svg xmlns="http://www.w3.org/2000/svg" xmlns:xlink="http://www.w3.org/1999/xlink" xmlns:s="https://github.com/nturley/netlistsvg" width="1069" height="542.5"><style>svg {
  stroke:#000;
  fill:none;
}
text {
  fill:#000;
  stroke:none;
  font-size:10px;
  font-weight: bold;
  font-family: "Courier New", monospace;
}
line {
    stroke-linecap: round;
}
.nodelabel {
  text-anchor: middle;
}
.inputPortLabel {
  text-anchor: end;
}
.splitjoinBody {
  fill:#000;
}</style><g s:type="add" transform="translate(157,122)" s:width="25" s:height="25" id="cell_$add$/home/aortiz/DDA/codigos/GP01/ej1/uns_acc.v:36$2"><s:alias val="$add"/><circle r="12.5" cx="12.5" cy="12.5" fill="#ffc9c3" class="cell_$add$/home/aortiz/DDA/codigos/GP01/ej1/uns_acc.v:36$2"/><line x1="7.5" x2="17.5" y1="12.5" y2="12.5" class="cell_$add$/home/aortiz/DDA/codigos/GP01/ej1/uns_acc.v:36$2"/><line x1="12.5" x2="12.5" y1="7.5" y2="17.5" class="cell_$add$/home/aortiz/DDA/codigos/GP01/ej1/uns_acc.v:36$2"/><g s:x="2" s:y="5" s:pid="A"/><g s:x="2" s:y="20" s:pid="B"/><g s:x="26" s:y="12.5" s:pid="Y"/></g><g s:type="add" transform="translate(612,490.5)" s:width="25" s:height="25" id="cell_$add$/home/aortiz/DDA/codigos/GP01/ej1/uns_acc.v:47$3"><s:alias val="$add"/><circle r="12.5" cx="12.5" cy="12.5" fill="#ffc9c3" class="cell_$add$/home/aortiz/DDA/codigos/GP01/ej1/uns_acc.v:47$3"/><line x1="7.5" x2="17.5" y1="12.5" y2="12.5" class="cell_$add$/home/aortiz/DDA/codigos/GP01/ej1/uns_acc.v:47$3"/><line x1="12.5" x2="12.5" y1="7.5" y2="17.5" class="cell_$add$/home/aortiz/DDA/codigos/GP01/ej1/uns_acc.v:47$3"/><g s:x="2" s:y="5" s:pid="A"/><g s:x="2" s:y="20" s:pid="B"/><g s:x="26" s:y="12.5" s:pid="Y"/></g><g s:type="generic" transform="translate(875,437.5)" s:width="30" s:height="40" id="cell_$procdff$11"><text x="15" y="-4" class="nodelabel cell_$procdff$11" s:attribute="ref">$adff-bus</text><rect width="30" height="60" s:generic="body" fill="#ffae46" rx="0" class="cell_$procdff$11"/><g transform="translate(0,10)" s:x="0" s:y="10" s:pid="in0" id="port_$procdff$11~ARST"><text x="-3" y="-4" class="inputPortLabel cell_$procdff$11">ARST</text></g><g transform="translate(0,30)" s:x="0" s:y="10" s:pid="in0" id="port_$procdff$11~CLK"><text x="-3" y="-4" class="inputPortLabel cell_$procdff$11">CLK</text></g><g transform="translate(0,50)" s:x="0" s:y="10" s:pid="in0" id="port_$procdff$11~D"><text x="-3" y="-4" class="inputPortLabel cell_$procdff$11">D</text></g><g transform="translate(30,10)" s:x="30" s:y="10" s:pid="out0" id="port_$procdff$11~Q"><text x="5" y="-4" style="fill:#000; stroke:none" class="cell_$procdff$11">Q</text></g></g><g s:type="not" transform="translate(222,510.5)" s:width="30" s:height="20" id="cell_$procmux$10_CMP0"><s:alias val="$_NOT_"/><s:alias val="$not"/><s:alias val="$logic_not"/><path d="M0,0 L0,20 L20,10 Z" fill="#eebaff" class="cell_$procmux$10_CMP0"/><circle cx="24" cy="10" r="3" fill="#eebaff" class="cell_$procmux$10_CMP0"/><g s:x="-1" s:y="10" s:pid="A"/><g s:x="27" s:y="10" s:pid="Y"/></g><g s:type="mux-bus" transform="translate(409.6666666666667,175.5)" s:width="24" s:height="40" id="cell_$procmux$6"><s:alias val="$pmux-bus"/><s:alias val="$mux-bus"/><s:alias val="$_MUX_-bus"/><path d="M8,2 L8,0 L24,8 L24,32 L8,40 L8,38" fill="#ffffff" class="cell_$procmux$6"/><path d="M4,2 L4,0 L22,9 L22,31 L4,40 L4,38" fill="#ffffff" class="cell_$procmux$6"/><path d="M0,0 L20,10 L20,30 L0,40 Z" fill="#ffffff" class="cell_$procmux$6"/><text x="5" y="32" class="nodelabel cell_$procmux$6" s:attribute="">1</text><text x="5" y="13" class="nodelabel cell_$procmux$6" s:attribute="">0</text><g s:x="-1" s:y="10" s:pid="A"/><g s:x="-1" s:y="30" s:pid="B"/><g s:x="12" s:y="38" s:pid="S"/><g s:x="24.5" s:y="20" s:pid="Y"/></g><g s:type="eq" transform="translate(223.33333333333334,255.5)" s:width="25" s:height="25" id="cell_$procmux$7_CMP0"><s:alias val="$eq"/><circle r="12.5" cx="12.5" cy="12.5" fill="#ffc9c3" class="cell_$procmux$7_CMP0"/><line x1="7.5" x2="17.5" y1="10" y2="10" class="cell_$procmux$7_CMP0"/><line x1="7.5" x2="17.5" y1="15" y2="15" class="cell_$procmux$7_CMP0"/><g s:x="2" s:y="5" s:pid="A"/><g s:x="2" s:y="20" s:pid="B"/><g s:x="25" s:y="12.5" s:pid="Y"/></g><g s:type="eq" transform="translate(223.33333333333334,385.5)" s:width="25" s:height="25" id="cell_$procmux$8_CMP0"><s:alias val="$eq"/><circle r="12.5" cx="12.5" cy="12.5" fill="#ffc9c3" class="cell_$procmux$8_CMP0"/><line x1="7.5" x2="17.5" y1="10" y2="10" class="cell_$procmux$8_CMP0"/><line x1="7.5" x2="17.5" y1="15" y2="15" class="cell_$procmux$8_CMP0"/><g s:x="2" s:y="5" s:pid="A"/><g s:x="2" s:y="20" s:pid="B"/><g s:x="25" s:y="12.5" s:pid="Y"/></g><g s:type="eq" transform="translate(223.33333333333334,450.5)" s:width="25" s:height="25" id="cell_$procmux$9_CMP0"><s:alias val="$eq"/><circle r="12.5" cx="12.5" cy="12.5" fill="#ffc9c3" class="cell_$procmux$9_CMP0"/><line x1="7.5" x2="17.5" y1="10" y2="10" class="cell_$procmux$9_CMP0"/><line x1="7.5" x2="17.5" y1="15" y2="15" class="cell_$procmux$9_CMP0"/><g s:x="2" s:y="5" s:pid="A"/><g s:x="2" s:y="20" s:pid="B"/><g s:x="25" s:y="12.5" s:pid="Y"/></g><g s:type="outputExt" transform="translate(1015,438)" s:width="30" s:height="20" id="cell_o_data"><text x="15" y="-4" class="nodelabel cell_o_data" s:attribute="ref">o_data</text><s:alias val="$_outputExt_"/><path d="M30,0 L30,20 L15,20 L0,10 L15,0 Z" fill="#169300" class="cell_o_data"/><g s:x="0" s:y="10" s:pid="A"/></g><g s:type="outputExt" transform="translate(1015,503)" s:width="30" s:height="20" id="cell_o_carry"><text x="15" y="-4" class="nodelabel cell_o_carry" s:attribute="ref">o_carry</text><s:alias val="$_outputExt_"/><path d="M30,0 L30,20 L15,20 L0,10 L15,0 Z" fill="#169300" class="cell_o_carry"/><g s:x="0" s:y="10" s:pid="A"/></g><g s:type="inputExt" transform="translate(12,225.5)" s:width="30" s:height="20" id="cell_i_data2"><text x="15" y="-4" class="nodelabel cell_i_data2" s:attribute="ref">i_data2</text><s:alias val="$_inputExt_"/><path d="M0,0 L0,20 L15,20 L30,10 L15,0 Z" fill="#8bcaff" class="cell_i_data2"/><g s:x="30" s:y="10" s:pid="Y"/></g><g s:type="inputExt" transform="translate(12,132)" s:width="30" s:height="20" id="cell_i_data1"><text x="15" y="-4" class="nodelabel cell_i_data1" s:attribute="ref">i_data1</text><s:alias val="$_inputExt_"/><path d="M0,0 L0,20 L15,20 L30,10 L15,0 Z" fill="#8bcaff" class="cell_i_data1"/><g s:x="30" s:y="10" s:pid="Y"/></g><g s:type="inputExt" transform="translate(89,330.5)" s:width="30" s:height="20" id="cell_i_sel"><text x="15" y="-4" class="nodelabel cell_i_sel" s:attribute="ref">i_sel</text><s:alias val="$_inputExt_"/><path d="M0,0 L0,20 L15,20 L30,10 L15,0 Z" fill="#8bcaff" class="cell_i_sel"/><g s:x="30" s:y="10" s:pid="Y"/></g><g s:type="inputExt" transform="translate(773,429)" s:width="30" s:height="20" id="cell_clk"><text x="15" y="-4" class="nodelabel cell_clk" s:attribute="ref">clk</text><s:alias val="$_inputExt_"/><path d="M0,0 L0,20 L15,20 L30,10 L15,0 Z" fill="#8bcaff" class="cell_clk"/><g s:x="30" s:y="10" s:pid="Y"/></g><g s:type="inputExt" transform="translate(773,364)" s:width="30" s:height="20" id="cell_i_rst_n"><text x="15" y="-4" class="nodelabel cell_i_rst_n" s:attribute="ref">i_rst_n</text><s:alias val="$_inputExt_"/><path d="M0,0 L0,20 L15,20 L30,10 L15,0 Z" fill="#8bcaff" class="cell_i_rst_n"/><g s:x="30" s:y="10" s:pid="Y"/></g><g s:type="constant" transform="translate(407,510.5)" s:width="30" s:height="20" id="cell_000"><text x="15" y="-4" class="nodelabel cell_000" s:attribute="ref">000</text><s:alias val="$_constant_"/><rect width="30" height="20" fill="#745bff" class="cell_000"/><g s:x="31" s:y="10" s:pid="Y"/></g><g s:type="constant" transform="translate(302,90)" s:width="30" s:height="20" id="cell_xxxx"><text x="15" y="-4" class="nodelabel cell_xxxx" s:attribute="ref">0xNaN</text><s:alias val="$_constant_"/><rect width="30" height="20" fill="#745bff" class="cell_xxxx"/><g s:x="31" s:y="10" s:pid="Y"/></g><g s:type="constant" transform="translate(155,22)" s:width="30" s:height="20" id="cell_0000"><text x="15" y="-4" class="nodelabel cell_0000" s:attribute="ref">0x0</text><s:alias val="$_constant_"/><rect width="30" height="20" fill="#745bff" class="cell_0000"/><g s:x="31" s:y="10" s:pid="Y"/></g><g s:type="constant" transform="translate(221,185.5)" s:width="30" s:height="20" id="cell_0"><text x="15" y="-4" class="nodelabel cell_0" s:attribute="ref">0</text><s:alias val="$_constant_"/><rect width="30" height="20" fill="#745bff" class="cell_0"/><g s:x="31" s:y="10" s:pid="Y"/></g><g s:type="constant" transform="translate(89,265.5)" s:width="30" s:height="20" id="cell_11"><text x="15" y="-4" class="nodelabel cell_11" s:attribute="ref">11</text><s:alias val="$_constant_"/><rect width="30" height="20" fill="#745bff" class="cell_11"/><g s:x="31" s:y="10" s:pid="Y"/></g><g s:type="constant" transform="translate(89,395.5)" s:width="30" s:height="20" id="cell_10"><text x="15" y="-4" class="nodelabel cell_10" s:attribute="ref">10</text><s:alias val="$_constant_"/><rect width="30" height="20" fill="#745bff" class="cell_10"/><g s:x="31" s:y="10" s:pid="Y"/></g><g s:type="constant" transform="translate(89,460.5)" s:width="30" s:height="20" id="cell_01"><text x="15" y="-4" class="nodelabel cell_01" s:attribute="ref">01</text><s:alias val="$_constant_"/><rect width="30" height="20" fill="#745bff" class="cell_01"/><g s:x="31" s:y="10" s:pid="Y"/></g><g s:type="join" transform="translate(532,490)" s:width="5" s:height="40" id="cell_$join$,23,24,25,26,37,38,39,"><rect width="5" height="40" class="splitjoinBody" s:generic="body"/><s:alias val="$_join_"/><g s:x="5" s:y="20" s:pid="out"/><g transform="translate(-1,10)" s:x="-1" s:y="10" s:pid="in0"><text x="-3" y="-4" class="inputPortLabel">0:3</text></g><g transform="translate(-1,30)" s:x="-1" s:y="10" s:pid="in0"><text x="-3" y="-4" class="inputPortLabel">4:6</text></g></g><g s:type="join" transform="translate(322,145)" s:width="5" s:height="40" id="cell_$join$,44,45,46,47,12,13,14,48,19,20,21,22,9,10,11,48,"><rect width="5" height="120" class="splitjoinBody" s:generic="body"/><s:alias val="$_join_"/><g s:x="5" s:y="20" s:pid="out"/><g transform="translate(-1,10)" s:x="-1" s:y="10" s:pid="in0"><text x="-3" y="-4" class="inputPortLabel">0:3</text></g><g transform="translate(-1,30)" s:x="-1" s:y="10" s:pid="in0"><text x="-3" y="-4" class="inputPortLabel">4:6</text></g><g transform="translate(-1,50)" s:x="-1" s:y="10" s:pid="in0"><text x="-3" y="-4" class="inputPortLabel">7</text></g><g transform="translate(-1,70)" s:x="-1" s:y="10" s:pid="in0"><text x="-3" y="-4" class="inputPortLabel">8:11</text></g><g transform="translate(-1,90)" s:x="-1" s:y="10" s:pid="in0"><text x="-3" y="-4" class="inputPortLabel">12:14</text></g><g transform="translate(-1,110)" s:x="-1" s:y="10" s:pid="in0"><text x="-3" y="-4" class="inputPortLabel">15</text></g></g><g s:type="join" transform="translate(319.2,450)" s:width="5" s:height="40" id="cell_$join$,34,35,36,33,"><rect width="5" height="80" class="splitjoinBody" s:generic="body"/><s:alias val="$_join_"/><g s:x="5" s:y="20" s:pid="out"/><g transform="translate(-1,10)" s:x="-1" s:y="10" s:pid="in0"><text x="-3" y="-4" class="inputPortLabel">0</text></g><g transform="translate(-1,30)" s:x="-1" s:y="10" s:pid="in0"><text x="-3" y="-4" class="inputPortLabel">1</text></g><g transform="translate(-1,50)" s:x="-1" s:y="10" s:pid="in0"><text x="-3" y="-4" class="inputPortLabel">2</text></g><g transform="translate(-1,70)" s:x="-1" s:y="10" s:pid="in0"><text x="-3" y="-4" class="inputPortLabel">3</text></g></g><g s:type="split" transform="translate(713,482.5)" s:width="5" s:height="40" id="cell_$split$,27,28,29,30,31,32,8,"><rect width="5" height="40" class="splitjoinBody" s:generic="body"/><s:alias val="$_split_"/><g s:x="-1" s:y="20" s:pid="in"/><g transform="translate(5,10)" s:x="5" s:y="10" s:pid="out0"><text x="5" y="-4">0:5</text></g><g transform="translate(5,30)" s:x="5" s:y="10" s:pid="out0"><text x="5" y="-4">6</text></g></g><line x1="42" x2="74" y1="235.5" y2="235.5" class="net_9,10,11 width_3" style="stroke-width: 2"/><line x1="74" x2="74" y1="235.5" y2="122" class="net_9,10,11 width_3" style="stroke-width: 2"/><line x1="74" x2="130" y1="122" y2="122" class="net_9,10,11 width_3" style="stroke-width: 2"/><line x1="130" x2="130" y1="122" y2="127" class="net_9,10,11 width_3" style="stroke-width: 2"/><circle cx="74" cy="235.5" r="3" style="fill:#000" class="net_9,10,11 width_3"/><line x1="130" x2="159" y1="127" y2="127" class="net_9,10,11 width_3" style="stroke-width: 2"/><line x1="42" x2="321" y1="235.5" y2="235.5" class="net_9,10,11 width_3" style="stroke-width: 2"/><line x1="42" x2="159" y1="142" y2="142" class="net_12,13,14 width_3" style="stroke-width: 2"/><line x1="42" x2="64" y1="142" y2="142" class="net_12,13,14 width_3" style="stroke-width: 2"/><line x1="64" x2="64" y1="142" y2="81" class="net_12,13,14 width_3" style="stroke-width: 2"/><line x1="64" x2="282" y1="81" y2="81" class="net_12,13,14 width_3" style="stroke-width: 2"/><line x1="282" x2="282" y1="81" y2="175.5" class="net_12,13,14 width_3" style="stroke-width: 2"/><circle cx="64" cy="142" r="3" style="fill:#000" class="net_12,13,14 width_3"/><line x1="282" x2="321" y1="175.5" y2="175.5" class="net_12,13,14 width_3" style="stroke-width: 2"/><line x1="906" x2="951" y1="448" y2="448" class="net_2,3,4,5,6,7 width_6" style="stroke-width: 2"/><line x1="951" x2="951" y1="448" y2="343" class="net_2,3,4,5,6,7 width_6" style="stroke-width: 2"/><line x1="951" x2="587" y1="343" y2="343" class="net_2,3,4,5,6,7 width_6" style="stroke-width: 2"/><line x1="587" x2="587" y1="343" y2="495.5" class="net_2,3,4,5,6,7 width_6" style="stroke-width: 2"/><circle cx="951" cy="448" r="3" style="fill:#000" class="net_2,3,4,5,6,7 width_6"/><line x1="587" x2="614" y1="495.5" y2="495.5" class="net_2,3,4,5,6,7 width_6" style="stroke-width: 2"/><line x1="906" x2="1015" y1="448" y2="448" class="net_2,3,4,5,6,7 width_6" style="stroke-width: 2"/><line x1="538" x2="614" y1="510.5" y2="510.5" class="net_23,24,25,26,37,38,39 width_7" style="stroke-width: 2"/><line x1="803" x2="835" y1="374" y2="374" class="net_18 width_1" style="stroke-width: 1"/><line x1="835" x2="835" y1="374" y2="448" class="net_18 width_1" style="stroke-width: 1"/><line x1="835" x2="875" y1="448" y2="448" class="net_18 width_1" style="stroke-width: 1"/><line x1="803" x2="825" y1="439" y2="439" class="net_17 width_1" style="stroke-width: 1"/><line x1="825" x2="825" y1="439" y2="468" class="net_17 width_1" style="stroke-width: 1"/><line x1="825" x2="874" y1="468" y2="468" class="net_17 width_1" style="stroke-width: 1"/><line x1="719" x2="748" y1="493" y2="493" class="net_27,28,29,30,31,32 width_6" style="stroke-width: 2"/><line x1="748" x2="748" y1="493" y2="488" class="net_27,28,29,30,31,32 width_6" style="stroke-width: 2"/><line x1="748" x2="874" y1="488" y2="488" class="net_27,28,29,30,31,32 width_6" style="stroke-width: 2"/><line x1="119" x2="130" y1="340.5" y2="340.5" class="net_15,16 width_2" style="stroke-width: 2"/><line x1="130" x2="130" y1="340.5" y2="520.5" class="net_15,16 width_2" style="stroke-width: 2"/><circle cx="130" cy="340.5" r="3" style="fill:#000" class="net_15,16 width_2"/><line x1="130" x2="221" y1="520.5" y2="520.5" class="net_15,16 width_2" style="stroke-width: 2"/><line x1="119" x2="130" y1="340.5" y2="340.5" class="net_15,16 width_2" style="stroke-width: 2"/><line x1="130" x2="130" y1="340.5" y2="255.5" class="net_15,16 width_2" style="stroke-width: 2"/><line x1="130" x2="196" y1="255.5" y2="255.5" class="net_15,16 width_2" style="stroke-width: 2"/><line x1="196" x2="196" y1="255.5" y2="260.5" class="net_15,16 width_2" style="stroke-width: 2"/><line x1="196" x2="225.33333333333334" y1="260.5" y2="260.5" class="net_15,16 width_2" style="stroke-width: 2"/><line x1="119" x2="196" y1="340.5" y2="340.5" class="net_15,16 width_2" style="stroke-width: 2"/><line x1="196" x2="196" y1="340.5" y2="390.5" class="net_15,16 width_2" style="stroke-width: 2"/><line x1="196" x2="225.33333333333334" y1="390.5" y2="390.5" class="net_15,16 width_2" style="stroke-width: 2"/><line x1="119" x2="130" y1="340.5" y2="340.5" class="net_15,16 width_2" style="stroke-width: 2"/><line x1="130" x2="130" y1="340.5" y2="450.5" class="net_15,16 width_2" style="stroke-width: 2"/><line x1="130" x2="196" y1="450.5" y2="450.5" class="net_15,16 width_2" style="stroke-width: 2"/><line x1="196" x2="196" y1="450.5" y2="455.5" class="net_15,16 width_2" style="stroke-width: 2"/><circle cx="130" cy="450.5" r="3" style="fill:#000" class="net_15,16 width_2"/><line x1="196" x2="225.33333333333334" y1="455.5" y2="455.5" class="net_15,16 width_2" style="stroke-width: 2"/><line x1="333" x2="382" y1="100" y2="100" class="net_40,41,42,43 width_4" style="stroke-width: 2"/><line x1="382" x2="382" y1="100" y2="185.5" class="net_40,41,42,43 width_4" style="stroke-width: 2"/><line x1="382" x2="408.6666666666667" y1="185.5" y2="185.5" class="net_40,41,42,43 width_4" style="stroke-width: 2"/><line x1="328" x2="408.6666666666667" y1="205.5" y2="205.5" class="net_44,45,46,47,12,13,14,48,19,20,21,22,9,10,11,48 width_16" style="stroke-width: 2"/><line x1="325.2" x2="421.6666666666667" y1="490.5" y2="490.5" class="net_34,35,36,33 width_4" style="stroke-width: 2"/><line x1="421.6666666666667" x2="421.6666666666667" y1="490.5" y2="213.5" class="net_34,35,36,33 width_4" style="stroke-width: 2"/><line x1="120" x2="225.33333333333334" y1="275.5" y2="275.5" class="net_50,51 width_2" style="stroke-width: 2"/><line x1="120" x2="225.33333333333334" y1="405.5" y2="405.5" class="net_52,53 width_2" style="stroke-width: 2"/><line x1="120" x2="225.33333333333334" y1="470.5" y2="470.5" class="net_54,55 width_2" style="stroke-width: 2"/><line x1="719" x2="1015" y1="513" y2="513" class="net_8 width_1" style="stroke-width: 1"/><line x1="434.1666666666667" x2="487" y1="195.5" y2="195.5" class="net_23,24,25,26 width_4" style="stroke-width: 2"/><line x1="487" x2="487" y1="195.5" y2="500.5" class="net_23,24,25,26 width_4" style="stroke-width: 2"/><line x1="487" x2="531" y1="500.5" y2="500.5" class="net_23,24,25,26 width_4" style="stroke-width: 2"/><line x1="438" x2="531" y1="520.5" y2="520.5" class="net_37,38,39 width_3" style="stroke-width: 2"/><line x1="186" x2="292" y1="32" y2="32" class="net_44,45,46,47 width_4" style="stroke-width: 2"/><line x1="292" x2="292" y1="32" y2="155.5" class="net_44,45,46,47 width_4" style="stroke-width: 2"/><line x1="292" x2="321" y1="155.5" y2="155.5" class="net_44,45,46,47 width_4" style="stroke-width: 2"/><line x1="252" x2="321" y1="195.5" y2="195.5" class="net_48 width_1" style="stroke-width: 1"/><line x1="252" x2="262" y1="195.5" y2="195.5" class="net_48 width_1" style="stroke-width: 1"/><line x1="262" x2="262" y1="195.5" y2="255.5" class="net_48 width_1" style="stroke-width: 1"/><circle cx="262" cy="195.5" r="2" style="fill:#000" class="net_48 width_1"/><line x1="262" x2="321" y1="255.5" y2="255.5" class="net_48 width_1" style="stroke-width: 1"/><line x1="183" x2="272" y1="134.5" y2="134.5" class="net_19,20,21,22 width_4" style="stroke-width: 2"/><line x1="272" x2="272" y1="134.5" y2="215.5" class="net_19,20,21,22 width_4" style="stroke-width: 2"/><line x1="272" x2="321" y1="215.5" y2="215.5" class="net_19,20,21,22 width_4" style="stroke-width: 2"/><line x1="248.33333333333334" x2="282" y1="268" y2="268" class="net_34 width_1" style="stroke-width: 1"/><line x1="282" x2="282" y1="268" y2="460.5" class="net_34 width_1" style="stroke-width: 1"/><line x1="282" x2="318.2" y1="460.5" y2="460.5" class="net_34 width_1" style="stroke-width: 1"/><line x1="248.33333333333334" x2="272" y1="398" y2="398" class="net_35 width_1" style="stroke-width: 1"/><line x1="272" x2="272" y1="398" y2="480.5" class="net_35 width_1" style="stroke-width: 1"/><line x1="272" x2="318.2" y1="480.5" y2="480.5" class="net_35 width_1" style="stroke-width: 1"/><line x1="248.33333333333334" x2="262" y1="463" y2="463" class="net_36 width_1" style="stroke-width: 1"/><line x1="262" x2="262" y1="463" y2="500.5" class="net_36 width_1" style="stroke-width: 1"/><line x1="262" x2="318.2" y1="500.5" y2="500.5" class="net_36 width_1" style="stroke-width: 1"/><line x1="249" x2="318.2" y1="520.5" y2="520.5" class="net_33 width_1" style="stroke-width: 1"/><line x1="638" x2="712" y1="503" y2="503" class="net_27,28,29,30,31,32,8 width_7" style="stroke-width: 2"/><rect x="169.5" y="230.5" width="16" height="9" class="net_9,10,11 width_3 busLabel_3" style="fill: white; stroke: none"/><text x="168.5" y="238.5" class="net_9,10,11 width_3 busLabel_3">/3/</text><rect x="169.5" y="230.5" width="16" height="9" class="net_9,10,11 width_3 busLabel_3" style="fill: white; stroke: none"/><text x="168.5" y="238.5" class="net_9,10,11 width_3 busLabel_3">/3/</text><rect x="169.5" y="76" width="16" height="9" class="net_12,13,14 width_3 busLabel_3" style="fill: white; stroke: none"/><text x="168.5" y="84" class="net_12,13,14 width_3 busLabel_3">/3/</text><rect x="169.5" y="76" width="16" height="9" class="net_12,13,14 width_3 busLabel_3" style="fill: white; stroke: none"/><text x="168.5" y="84" class="net_12,13,14 width_3 busLabel_3">/3/</text><rect x="977" y="443" width="16" height="9" class="net_2,3,4,5,6,7 width_6 busLabel_6" style="fill: white; stroke: none"/><text x="976" y="451" class="net_2,3,4,5,6,7 width_6 busLabel_6">/6/</text><rect x="977" y="443" width="16" height="9" class="net_2,3,4,5,6,7 width_6 busLabel_6" style="fill: white; stroke: none"/><text x="976" y="451" class="net_2,3,4,5,6,7 width_6 busLabel_6">/6/</text><rect x="574" y="505.5" width="16" height="9" class="net_23,24,25,26,37,38,39 width_7 busLabel_7" style="fill: white; stroke: none"/><text x="573" y="513.5" class="net_23,24,25,26,37,38,39 width_7 busLabel_7">/7/</text><rect x="793" y="483" width="16" height="9" class="net_27,28,29,30,31,32 width_6 busLabel_6" style="fill: white; stroke: none"/><text x="792" y="491" class="net_27,28,29,30,31,32 width_6 busLabel_6">/6/</text><rect x="169.5" y="445.5" width="16" height="9" class="net_15,16 width_2 busLabel_2" style="fill: white; stroke: none"/><text x="168.5" y="453.5" class="net_15,16 width_2 busLabel_2">/2/</text><rect x="169.5" y="445.5" width="16" height="9" class="net_15,16 width_2 busLabel_2" style="fill: white; stroke: none"/><text x="168.5" y="453.5" class="net_15,16 width_2 busLabel_2">/2/</text><rect x="169.5" y="445.5" width="16" height="9" class="net_15,16 width_2 busLabel_2" style="fill: white; stroke: none"/><text x="168.5" y="453.5" class="net_15,16 width_2 busLabel_2">/2/</text><rect x="169.5" y="445.5" width="16" height="9" class="net_15,16 width_2 busLabel_2" style="fill: white; stroke: none"/><text x="168.5" y="453.5" class="net_15,16 width_2 busLabel_2">/2/</text><rect x="369" y="95" width="16" height="9" class="net_40,41,42,43 width_4 busLabel_4" style="fill: white; stroke: none"/><text x="368" y="103" class="net_40,41,42,43 width_4 busLabel_4">/4/</text><rect x="369" y="200.5" width="22" height="9" class="net_44,45,46,47,12,13,14,48,19,20,21,22,9,10,11,48 width_16 busLabel_16" style="fill: white; stroke: none"/><text x="368" y="208.5" class="net_44,45,46,47,12,13,14,48,19,20,21,22,9,10,11,48 width_16 busLabel_16">/16/</text><rect x="369" y="485.5" width="16" height="9" class="net_34,35,36,33 width_4 busLabel_4" style="fill: white; stroke: none"/><text x="368" y="493.5" class="net_34,35,36,33 width_4 busLabel_4">/4/</text><rect x="169.5" y="270.5" width="16" height="9" class="net_50,51 width_2 busLabel_2" style="fill: white; stroke: none"/><text x="168.5" y="278.5" class="net_50,51 width_2 busLabel_2">/2/</text><rect x="169.5" y="400.5" width="16" height="9" class="net_52,53 width_2 busLabel_2" style="fill: white; stroke: none"/><text x="168.5" y="408.5" class="net_52,53 width_2 busLabel_2">/2/</text><rect x="169.5" y="465.5" width="16" height="9" class="net_54,55 width_2 busLabel_2" style="fill: white; stroke: none"/><text x="168.5" y="473.5" class="net_54,55 width_2 busLabel_2">/2/</text><rect x="474" y="190.5" width="16" height="9" class="net_23,24,25,26 width_4 busLabel_4" style="fill: white; stroke: none"/><text x="473" y="198.5" class="net_23,24,25,26 width_4 busLabel_4">/4/</text><rect x="474" y="515.5" width="16" height="9" class="net_37,38,39 width_3 busLabel_3" style="fill: white; stroke: none"/><text x="473" y="523.5" class="net_37,38,39 width_3 busLabel_3">/3/</text><rect x="235.5" y="27" width="16" height="9" class="net_44,45,46,47 width_4 busLabel_4" style="fill: white; stroke: none"/><text x="234.5" y="35" class="net_44,45,46,47 width_4 busLabel_4">/4/</text><rect x="235.5" y="129.5" width="16" height="9" class="net_19,20,21,22 width_4 busLabel_4" style="fill: white; stroke: none"/><text x="234.5" y="137.5" class="net_19,20,21,22 width_4 busLabel_4">/4/</text><rect x="674" y="498" width="16" height="9" class="net_27,28,29,30,31,32,8 width_7 busLabel_7" style="fill: white; stroke: none"/><text x="673" y="506" class="net_27,28,29,30,31,32,8 width_7 busLabel_7">/7/</text></svg>